<svg width="30" height="30" viewBox="0 0 30 30" fill="none" xmlns="http://www.w3.org/2000/svg">
<ellipse cx="14.9082" cy="14.7777" rx="12.375" ry="13.453" fill="#FFCD4B"/>
<path d="M16.5332 27.5C27.2332 18.6 20.9915 7.375 16.5332 2.875L20.0332 2C22.5749 2.91667 27.7082 6.725 27.9082 14.625C28.1082 22.525 22.2415 27 19.2832 28.25L16.5332 27.5Z" fill="#FFE7A9"/>
<path fill-rule="evenodd" clip-rule="evenodd" d="M26.6512 16.4692H23.3474C23.2814 17.2631 23.1626 18.0415 22.9949 18.7974H26.2665C26.4486 18.0541 26.579 17.276 26.6512 16.4692ZM25.6213 20.7974H22.4193C22.1269 21.6155 21.7742 22.3952 21.3672 23.1255H24.3907C24.8635 22.4219 25.2782 21.6418 25.6213 20.7974ZM22.6675 25.1255H20.0156C19.4272 25.8471 18.7739 26.4881 18.0652 27.0317H19.0507C20.3508 26.7588 21.5847 26.0971 22.6675 25.1255ZM19.3423 29.0121V29.0317H12.3694L12.3457 29.0317L12.322 29.0317H11.8457V29.0181C5.76385 28.6847 1.2832 22.2954 1.2832 15.0005C1.2832 7.70557 5.76385 1.3163 11.8457 0.982899V0.969238H12.3457H19.3423L19.3425 0.968262C24.8233 2.03909 28.7167 8.08555 28.7167 14.9907C28.7167 21.8959 24.8233 27.9423 19.3425 29.0132L19.3423 29.0121ZM19.1406 2.96924H18.0652C19.0677 3.73815 19.9592 4.70196 20.7131 5.81299L23.5998 5.81299C22.3425 4.34337 20.7971 3.34066 19.1406 2.96924ZM24.9716 7.81299L21.8471 7.81299C22.193 8.55097 22.4867 9.3302 22.7228 10.1411H25.9703C25.7004 9.3096 25.364 8.5302 24.9716 7.81299ZM26.4685 12.1411H23.1757C23.3006 12.9004 23.3767 13.6787 23.4003 14.4692H26.7087C26.6838 13.6667 26.6017 12.8888 26.4685 12.1411ZM12.3457 2.96924C7.56565 2.96924 3.2832 8.1 3.2832 15.0005C3.2832 21.8913 7.5536 27.0173 12.3255 27.0317H12.3659C17.1378 27.0173 21.4082 21.8913 21.4082 15.0005C21.4082 8.1 17.1258 2.96924 12.3457 2.96924Z" fill="#FF9900"/>
<path fill-rule="evenodd" clip-rule="evenodd" d="M14.2853 11.5871C13.7681 11.4304 13.2219 11.7227 13.0653 12.2398L12.665 13.5617C12.5083 14.0789 12.8006 14.6251 13.3177 14.7817C13.8349 14.9383 14.3811 14.6461 14.5377 14.1289L14.938 12.807C15.0947 12.2899 14.8024 11.7437 14.2853 11.5871ZM6.55894 14.2989C6.07072 14.0674 5.48725 14.2754 5.25573 14.7637C5.0242 15.2519 5.23229 15.8353 5.72051 16.0669L6.96849 16.6587C7.45671 16.8902 8.04018 16.6821 8.27171 16.1939C8.50323 15.7057 8.29514 15.1222 7.80692 14.8907L6.55894 14.2989ZM17.1325 14.2989C17.6207 14.0674 18.2042 14.2754 18.4357 14.7637C18.6672 15.2519 18.4591 15.8353 17.9709 16.0669L16.7229 16.6587C16.2347 16.8902 15.6512 16.6821 15.4197 16.1939C15.1882 15.7057 15.3963 15.1222 15.8845 14.8907L17.1325 14.2989ZM10.587 12.2398C10.4304 11.7227 9.88423 11.4304 9.36709 11.5871C8.84995 11.7437 8.55769 12.2899 8.71431 12.807L9.11466 14.1289C9.27128 14.6461 9.81746 14.9383 10.3346 14.7817C10.8517 14.6251 11.144 14.0789 10.9874 13.5617L10.587 12.2398Z" fill="white"/>
</svg>
